<svg id="visual" viewBox="0 0 900 600" width="900" height="600" xmlns="http://www.w3.org/2000/svg" xmlns:xlink="http://www.w3.org/1999/xlink" version="1.1"><rect x="0" y="0" width="900" height="600" fill="#119822"></rect><defs><linearGradient id="grad1_0" x1="33.3%" y1="0%" x2="100%" y2="100%"><stop offset="20%" stop-color="#2f7e25" stop-opacity="1"></stop><stop offset="80%" stop-color="#2f7e25" stop-opacity="1"></stop></linearGradient></defs><defs><linearGradient id="grad1_1" x1="33.3%" y1="0%" x2="100%" y2="100%"><stop offset="20%" stop-color="#2f7e25" stop-opacity="1"></stop><stop offset="80%" stop-color="#119822" stop-opacity="1"></stop></linearGradient></defs><defs><linearGradient id="grad2_0" x1="0%" y1="0%" x2="66.7%" y2="100%"><stop offset="20%" stop-color="#2f7e25" stop-opacity="1"></stop><stop offset="80%" stop-color="#2f7e25" stop-opacity="1"></stop></linearGradient></defs><defs><linearGradient id="grad2_1" x1="0%" y1="0%" x2="66.7%" y2="100%"><stop offset="20%" stop-color="#119822" stop-opacity="1"></stop><stop offset="80%" stop-color="#2f7e25" stop-opacity="1"></stop></linearGradient></defs><g transform="translate(900, 0)"><path d="M0 378.6C-43.5 357 -87 335.5 -132 318.7C-177.1 302 -223.7 290 -262.3 262.3C-301 234.6 -331.7 191.2 -349.8 144.9C-367.8 98.5 -373.2 49.3 -378.6 0L0 0Z" fill="#268b23"></path><path d="M0 189.3C-21.7 178.5 -43.5 167.7 -66 159.4C-88.5 151 -111.8 145 -131.2 131.2C-150.5 117.3 -165.9 95.6 -174.9 72.4C-183.9 49.3 -186.6 24.6 -189.3 0L0 0Z" fill="#2f7e25"></path></g><g transform="translate(0, 600)"><path d="M0 -378.6C47.3 -368 94.6 -357.4 141.2 -340.9C187.8 -324.4 233.8 -301.9 267.7 -267.7C301.6 -233.5 323.5 -187.4 340 -140.8C356.5 -94.2 367.5 -47.1 378.6 0L0 0Z" fill="#268b23"></path><path d="M0 -189.3C23.6 -184 47.3 -178.7 70.6 -170.5C93.9 -162.2 116.9 -151 133.8 -133.8C150.8 -116.7 161.8 -93.7 170 -70.4C178.2 -47.1 183.8 -23.6 189.3 0L0 0Z" fill="#2f7e25"></path></g></svg>