<svg id="visual" viewBox="0 0 900 600" width="900" height="600" xmlns="http://www.w3.org/2000/svg" xmlns:xlink="http://www.w3.org/1999/xlink" version="1.1"><rect x="0" y="0" width="900" height="600" fill="#119822"></rect><path d="M497 0L473.7 14.3C450.3 28.7 403.7 57.3 404 85.8C404.3 114.3 451.7 142.7 479.2 171.2C506.7 199.7 514.3 228.3 504.3 257C494.3 285.7 466.7 314.3 437.7 343C408.7 371.7 378.3 400.3 376 428.8C373.7 457.3 399.3 485.7 428.5 514.2C457.7 542.7 490.3 571.3 506.7 585.7L523 600L0 600L0 585.7C0 571.3 0 542.7 0 514.2C0 485.7 0 457.3 0 428.8C0 400.3 0 371.7 0 343C0 314.3 0 285.7 0 257C0 228.3 0 199.7 0 171.2C0 142.7 0 114.3 0 85.8C0 57.3 0 28.7 0 14.3L0 0Z" fill="#41ae32"></path><path d="M350 0L339.8 14.3C329.7 28.7 309.3 57.3 310 85.8C310.7 114.3 332.3 142.7 327 171.2C321.7 199.7 289.3 228.3 296 257C302.7 285.7 348.3 314.3 363.5 343C378.7 371.7 363.3 400.3 368 428.8C372.7 457.3 397.3 485.7 406.8 514.2C416.3 542.7 410.7 571.3 407.8 585.7L405 600L0 600L0 585.7C0 571.3 0 542.7 0 514.2C0 485.7 0 457.3 0 428.8C0 400.3 0 371.7 0 343C0 314.3 0 285.7 0 257C0 228.3 0 199.7 0 171.2C0 142.7 0 114.3 0 85.8C0 57.3 0 28.7 0 14.3L0 0Z" fill="#3ca22f"></path><path d="M314 0L312.2 14.3C310.3 28.7 306.7 57.3 289 85.8C271.3 114.3 239.7 142.7 241.5 171.2C243.3 199.7 278.7 228.3 277.8 257C277 285.7 240 314.3 223.7 343C207.3 371.7 211.7 400.3 232.7 428.8C253.7 457.3 291.3 485.7 304.7 514.2C318 542.7 307 571.3 301.5 585.7L296 600L0 600L0 585.7C0 571.3 0 542.7 0 514.2C0 485.7 0 457.3 0 428.8C0 400.3 0 371.7 0 343C0 314.3 0 285.7 0 257C0 228.3 0 199.7 0 171.2C0 142.7 0 114.3 0 85.8C0 57.3 0 28.7 0 14.3L0 0Z" fill="#38962c"></path><path d="M195 0L197 14.3C199 28.7 203 57.3 196.3 85.8C189.7 114.3 172.3 142.7 160.8 171.2C149.3 199.7 143.7 228.3 151.8 257C160 285.7 182 314.3 181.5 343C181 371.7 158 400.3 148 428.8C138 457.3 141 485.7 159.5 514.2C178 542.7 212 571.3 229 585.7L246 600L0 600L0 585.7C0 571.3 0 542.7 0 514.2C0 485.7 0 457.3 0 428.8C0 400.3 0 371.7 0 343C0 314.3 0 285.7 0 257C0 228.3 0 199.7 0 171.2C0 142.7 0 114.3 0 85.8C0 57.3 0 28.7 0 14.3L0 0Z" fill="#338a28"></path><path d="M76 0L77.5 14.3C79 28.7 82 57.3 81.7 85.8C81.3 114.3 77.7 142.7 72.8 171.2C68 199.7 62 228.3 74.3 257C86.7 285.7 117.3 314.3 134.3 343C151.3 371.7 154.7 400.3 150.5 428.8C146.3 457.3 134.7 485.7 127.2 514.2C119.7 542.7 116.3 571.3 114.7 585.7L113 600L0 600L0 585.7C0 571.3 0 542.7 0 514.2C0 485.7 0 457.3 0 428.8C0 400.3 0 371.7 0 343C0 314.3 0 285.7 0 257C0 228.3 0 199.7 0 171.2C0 142.7 0 114.3 0 85.8C0 57.3 0 28.7 0 14.3L0 0Z" fill="#2f7e25"></path></svg>